<svg width="46" height="46" viewBox="0 0 46 46" fill="none" xmlns="http://www.w3.org/2000/svg">
<rect width="46" height="46" rx="4" fill="#1B769D"/>
<path d="M23.0009 6C13.6262 6 6 13.6256 6 22.9993C6 32.3737 13.6266 40 23.0005 40C32.3741 40 40 32.3737 40 22.9993C40.0004 13.626 32.3745 6 23.0009 6ZM7.7156 22.9993C7.7156 20.7839 8.19078 18.6797 9.03904 16.7794L16.3303 36.7554C11.2319 34.2775 7.7156 29.0493 7.7156 22.9993ZM23.0009 38.2848C21.5004 38.2848 20.0523 38.0647 18.6829 37.662L23.2687 24.3365L27.9678 37.2076C27.9982 37.2836 28.0353 37.3528 28.0767 37.4182C26.4879 37.9771 24.7808 38.2848 23.0009 38.2848ZM25.1069 15.8333C26.0269 15.7849 26.8567 15.6877 26.8567 15.6877C27.6799 15.5902 27.5835 14.3802 26.7589 14.4286C26.7589 14.4286 24.2833 14.6226 22.6847 14.6226C21.1832 14.6226 18.6585 14.4286 18.6585 14.4286C17.8347 14.3802 17.7386 15.6393 18.5621 15.6877C18.5621 15.6877 19.3422 15.7849 20.165 15.8333L22.5462 22.3581L19.2012 32.3896L13.6361 15.8336C14.5575 15.7856 15.3856 15.6881 15.3856 15.6881C16.2088 15.5909 16.1116 14.3802 15.2874 14.4297C15.2874 14.4297 12.8129 14.6236 11.2139 14.6236C10.9267 14.6236 10.5886 14.6162 10.2303 14.6053C12.9627 10.4553 17.6612 7.71554 23.0009 7.71554C26.9807 7.71554 30.6034 9.23678 33.3224 11.7278C33.2563 11.7243 33.1924 11.7154 33.1238 11.7154C31.623 11.7154 30.5575 13.0233 30.5575 14.4283C30.5575 15.6874 31.2835 16.7536 32.0583 18.0127C32.6402 19.0309 33.3185 20.3391 33.3185 22.2281C33.3185 23.5366 32.8161 25.0543 32.1551 27.1691L30.6306 32.2638L25.1069 15.8333ZM30.6847 36.2114L35.3535 22.7131C36.2265 20.533 36.5158 18.7896 36.5158 17.2383C36.5158 16.6762 36.4791 16.1537 36.4126 15.6665C37.6068 17.8438 38.2862 20.3426 38.2855 23C38.2851 28.6384 35.2284 33.5618 30.6847 36.2114Z" fill="white"/>
</svg>
